<svg width="3671" height="519" viewBox="0 0 3671 519" fill="none" xmlns="http://www.w3.org/2000/svg">
<path d="M150.939 101.16L149.963 94.7942C149.279 90.3341 150.816 85.821 154.081 82.7059C156.65 80.2539 160.065 78.8858 163.617 78.8855L176.149 78.8848L202.531 78.8859L229.344 78.8848L244.087 78.8862C248.27 78.8866 252.022 81.4587 253.532 85.3601C254.121 86.8821 254.333 88.5238 254.151 90.1455L252.602 103.93C251.645 112.448 255.797 120.731 263.196 125.06C266.517 127.004 270.296 128.028 274.144 128.028H293.784L311.266 130.257C322.135 131.643 332.693 134.849 342.497 139.741L347.923 142.447C359.276 148.112 368.991 156.588 376.142 167.07C380.64 173.664 384.047 180.939 386.232 188.617L387.504 193.089C389.913 201.554 391.134 210.312 391.134 219.112C391.134 234.076 387.603 248.829 380.827 262.17L374.301 275.02L354.165 312.489L341.539 331.567C335.977 339.973 329.784 347.943 323.013 355.409L288.753 393.191L274.84 413.618C272.393 417.21 271.085 421.455 271.085 425.801C271.085 432.501 274.188 438.824 279.488 442.922L299.038 458.041L312.854 471.011L316.969 475.216C321.446 479.793 323.345 486.3 322.034 492.567C320.546 499.671 315.178 505.328 308.161 507.185L305.065 508.004C303.792 508.341 302.493 508.575 301.182 508.702L261.962 512.506L209.765 513.982H159.575L101.051 508.669C99.8932 508.564 98.7475 508.352 97.6286 508.036C89.5059 505.741 83.8973 498.254 83.8973 489.813C83.8973 485.152 85.6098 480.616 88.7093 477.135L91.9322 473.516C93.4154 471.85 95.0701 470.346 96.8687 469.027L105.523 462.682C109.723 459.602 113.48 455.96 116.689 451.858L123.833 442.724C127.026 438.642 128.76 433.609 128.76 428.426C128.76 422.46 126.462 416.722 122.343 412.406L104.008 393.191L63.7862 344.193L50.2203 327.839C41.7527 317.631 34.3274 306.602 28.0551 294.916L17.376 275.02L12.9375 263.133C7.68831 249.075 5 234.19 5 219.183V215.216C5 208.988 5.65922 202.777 6.96664 196.687L7.48942 194.252C9.92396 182.913 14.8777 172.266 21.9839 163.101C28.1352 155.166 35.7724 148.506 44.4693 143.491L47.3617 141.823C58.2029 135.571 70.1799 131.539 82.5949 129.962L97.8203 128.028H127.878C131.51 128.028 135.092 127.18 138.339 125.551C147.384 121.014 152.473 111.163 150.939 101.16Z" fill="#18363E"/>
<path d="M150.939 101.16L149.963 94.7942C149.279 90.3341 150.816 85.821 154.081 82.7059C156.65 80.2539 160.065 78.8858 163.617 78.8855L176.149 78.8848L202.531 78.8859L229.344 78.8848L244.087 78.8862C248.27 78.8866 252.022 81.4587 253.532 85.3601C254.121 86.8821 254.333 88.5238 254.151 90.1455L252.602 103.93C251.645 112.448 255.797 120.731 263.196 125.06C266.517 127.004 270.296 128.028 274.144 128.028H293.784L311.266 130.257C322.135 131.643 332.693 134.849 342.497 139.741L347.923 142.447C359.276 148.112 368.991 156.588 376.142 167.07C380.64 173.664 384.047 180.939 386.232 188.617L387.504 193.089C389.913 201.554 391.134 210.312 391.134 219.112C391.134 234.076 387.603 248.829 380.827 262.17L374.301 275.02L354.165 312.489L341.539 331.567C335.977 339.973 329.784 347.943 323.013 355.409L288.753 393.191L274.84 413.618C272.393 417.21 271.085 421.455 271.085 425.801C271.085 432.501 274.188 438.824 279.488 442.922L299.038 458.041L312.854 471.011L316.969 475.216C321.446 479.793 323.345 486.3 322.034 492.567C320.546 499.671 315.178 505.328 308.161 507.185L305.065 508.004C303.792 508.341 302.493 508.575 301.182 508.702L261.962 512.506L209.765 513.982H159.575L101.051 508.669C99.8932 508.564 98.7475 508.352 97.6286 508.036C89.5059 505.741 83.8973 498.254 83.8973 489.813C83.8973 485.152 85.6098 480.616 88.7093 477.135L91.9322 473.516C93.4154 471.85 95.0701 470.346 96.8687 469.027L105.523 462.682C109.723 459.602 113.48 455.96 116.689 451.858L123.833 442.724C127.026 438.642 128.76 433.609 128.76 428.426C128.76 422.46 126.462 416.722 122.343 412.406L104.008 393.191L63.7862 344.193L50.2203 327.839C41.7527 317.631 34.3274 306.602 28.0551 294.916L17.376 275.02L12.9375 263.133C7.68831 249.075 5 234.19 5 219.183V215.216C5 208.988 5.65922 202.777 6.96664 196.687L7.48942 194.252C9.92396 182.913 14.8777 172.266 21.9839 163.101C28.1352 155.166 35.7724 148.506 44.4693 143.491L47.3617 141.823C58.2029 135.571 70.1799 131.539 82.5949 129.962L97.8203 128.028H127.878C131.51 128.028 135.092 127.18 138.339 125.551C147.384 121.014 152.473 111.163 150.939 101.16Z" fill="#18363E"/>
<path d="M150.939 101.16L149.963 94.7942C149.279 90.3341 150.816 85.821 154.081 82.7059C156.65 80.2539 160.065 78.8858 163.617 78.8855L176.149 78.8848L202.531 78.8859L229.344 78.8848L244.087 78.8862C248.27 78.8866 252.022 81.4587 253.532 85.3601C254.121 86.8821 254.333 88.5238 254.151 90.1455L252.602 103.93C251.645 112.448 255.797 120.731 263.196 125.06C266.517 127.004 270.296 128.028 274.144 128.028H293.784L311.266 130.257C322.135 131.643 332.693 134.849 342.497 139.741L347.923 142.447C359.276 148.112 368.991 156.588 376.142 167.07C380.64 173.664 384.047 180.939 386.232 188.617L387.504 193.089C389.913 201.554 391.134 210.312 391.134 219.112C391.134 234.076 387.603 248.829 380.827 262.17L374.301 275.02L354.165 312.489L341.539 331.567C335.977 339.973 329.784 347.943 323.013 355.409L288.753 393.191L274.84 413.618C272.393 417.21 271.085 421.455 271.085 425.801C271.085 432.501 274.188 438.824 279.488 442.922L299.038 458.041L312.854 471.011L316.969 475.216C321.446 479.793 323.345 486.3 322.034 492.567C320.546 499.671 315.178 505.328 308.161 507.185L305.065 508.004C303.792 508.341 302.493 508.575 301.182 508.702L261.962 512.506L209.765 513.982H159.575L101.051 508.669C99.8932 508.564 98.7475 508.352 97.6286 508.036C89.5059 505.741 83.8973 498.254 83.8973 489.813C83.8973 485.152 85.6098 480.616 88.7093 477.135L91.9322 473.516C93.4154 471.85 95.0701 470.346 96.8687 469.027L105.523 462.682C109.723 459.602 113.48 455.96 116.689 451.858L123.833 442.724C127.026 438.642 128.76 433.609 128.76 428.426C128.76 422.46 126.462 416.722 122.343 412.406L104.008 393.191L63.7862 344.193L50.2203 327.839C41.7527 317.631 34.3274 306.602 28.0551 294.916L17.376 275.02L12.9375 263.133C7.68831 249.075 5 234.19 5 219.183V215.216C5 208.988 5.65922 202.777 6.96664 196.687L7.48942 194.252C9.92396 182.913 14.8777 172.266 21.9839 163.101C28.1352 155.166 35.7724 148.506 44.4693 143.491L47.3617 141.823C58.2029 135.571 70.1799 131.539 82.5949 129.962L97.8203 128.028H127.878C131.51 128.028 135.092 127.18 138.339 125.551C147.384 121.014 152.473 111.163 150.939 101.16Z" fill="#18363E"/>
<path d="M150.939 101.16L149.963 94.7942C149.279 90.3341 150.816 85.821 154.081 82.7059C156.65 80.2539 160.065 78.8858 163.617 78.8855L176.149 78.8848L202.531 78.8859L229.344 78.8848L244.087 78.8862C248.27 78.8866 252.022 81.4587 253.532 85.3601C254.121 86.8821 254.333 88.5238 254.151 90.1455L252.602 103.93C251.645 112.448 255.797 120.731 263.196 125.06C266.517 127.004 270.296 128.028 274.144 128.028H293.784L311.266 130.257C322.135 131.643 332.693 134.849 342.497 139.741L347.923 142.447C359.276 148.112 368.991 156.588 376.142 167.07C380.64 173.664 384.047 180.939 386.232 188.617L387.504 193.089C389.913 201.554 391.134 210.312 391.134 219.112C391.134 234.076 387.603 248.829 380.827 262.17L374.301 275.02L354.165 312.489L341.539 331.567C335.977 339.973 329.784 347.943 323.013 355.409L288.753 393.191L274.84 413.618C272.393 417.21 271.085 421.455 271.085 425.801C271.085 432.501 274.188 438.824 279.488 442.922L299.038 458.041L312.854 471.011L316.969 475.216C321.446 479.793 323.345 486.3 322.034 492.567C320.546 499.671 315.178 505.328 308.161 507.185L305.065 508.004C303.792 508.341 302.493 508.575 301.182 508.702L261.962 512.506L209.765 513.982H159.575L101.051 508.669C99.8932 508.564 98.7475 508.352 97.6286 508.036C89.5059 505.741 83.8973 498.254 83.8973 489.813C83.8973 485.152 85.6098 480.616 88.7093 477.135L91.9322 473.516C93.4154 471.85 95.0701 470.346 96.8687 469.027L105.523 462.682C109.723 459.602 113.48 455.96 116.689 451.858L123.833 442.724C127.026 438.642 128.76 433.609 128.76 428.426C128.76 422.46 126.462 416.722 122.343 412.406L104.008 393.191L63.7862 344.193L50.2203 327.839C41.7527 317.631 34.3274 306.602 28.0551 294.916L17.376 275.02L12.9375 263.133C7.68831 249.075 5 234.19 5 219.183V215.216C5 208.988 5.65922 202.777 6.96664 196.687L7.48942 194.252C9.92396 182.913 14.8777 172.266 21.9839 163.101C28.1352 155.166 35.7724 148.506 44.4693 143.491L47.3617 141.823C58.2029 135.571 70.1799 131.539 82.5949 129.962L97.8203 128.028H127.878C131.51 128.028 135.092 127.18 138.339 125.551C147.384 121.014 152.473 111.163 150.939 101.16Z" fill="#18363E"/>
<path d="M253.478 32.7341L252.746 43.0637C252.194 50.8476 245.718 56.8803 237.914 56.8803H166.111C155.638 56.8803 147.148 48.3904 147.148 37.9175V29.6289C147.148 16.0271 158.174 5.00061 171.776 5.00061H173.167L229.539 5C241.073 5.00035 250.925 13.319 252.859 24.6898L253.177 26.5598C253.523 28.5985 253.625 30.6714 253.478 32.7341Z" fill="#18363E" stroke="black" stroke-width="9.94523"/>
<mask id="mask0_517_343" style="mask-type:alpha" maskUnits="userSpaceOnUse" x="0" y="0" width="397" height="519">
<path d="M201.28 213.837L196.257 221.066L191.813 213.837L190.354 211.703C188.627 209.179 186.63 206.852 184.397 204.763L184.08 204.467C181.393 201.953 178.362 199.834 175.078 198.172C171.32 196.271 167.278 194.994 163.109 194.39L162.293 194.272C160.21 193.97 158.108 193.819 156.003 193.819H155.355C152.363 193.819 149.377 194.096 146.436 194.647L145.34 194.852C143.74 195.151 142.163 195.568 140.624 196.098C137.166 197.289 133.928 199.041 131.04 201.284L127.288 204.199L126.665 204.837C123.357 208.23 120.454 211.997 118.015 216.061L116.986 218.458C115.874 221.049 115.13 223.782 114.774 226.579C114.488 228.827 114.456 231.101 114.678 233.357L114.907 235.683C115.175 238.414 115.664 241.119 116.367 243.771L118.015 249.981L121.685 259.619C125.415 266.775 129.686 273.636 134.461 280.142L136.947 283.529L147.38 296.689L162.062 311.703L184.279 332.648L196.643 344.325L213.451 327.828L224.656 318.005L237.406 305.03L250.157 291.314L257.691 281.676L266.385 268.886L270.442 261.287L274.333 252.133C275.727 248.854 276.771 245.436 277.446 241.937L277.563 241.332C278.095 238.578 278.362 235.779 278.362 232.974C278.362 229.129 277.86 225.301 276.867 221.587L276.43 219.954L275.925 218.723C274.595 215.483 272.793 212.458 270.577 209.746C269.074 207.906 267.39 206.221 265.55 204.717L263.1 202.716L258.589 199.59C256.965 198.464 255.227 197.511 253.404 196.746C251.12 195.787 248.721 195.131 246.266 194.795L239.145 193.819H235.509C232.407 193.819 229.317 194.204 226.309 194.967C222.525 195.925 218.913 197.471 215.606 199.546C212.26 201.645 209.264 204.261 206.734 207.295L201.28 213.837Z" fill="black"/>
<path d="M253.478 32.7351L252.746 43.0646C252.194 50.8486 245.718 56.8813 237.914 56.8813H166.111C155.638 56.8813 147.148 48.3913 147.148 37.9185V29.6298C147.148 16.028 158.174 5.00159 171.776 5.00159H173.167L229.539 5.00098C241.073 5.00133 250.925 13.32 252.859 24.6907L253.177 26.5608C253.523 28.5995 253.625 30.6723 253.478 32.7351Z" stroke="black" stroke-width="9.94523"/>
<path d="M150.939 101.16L149.963 94.7942C149.279 90.3341 150.816 85.821 154.081 82.7059C156.65 80.2539 160.065 78.8858 163.617 78.8855L176.149 78.8848L202.531 78.8859L229.344 78.8848L244.087 78.8862C248.27 78.8866 252.022 81.4587 253.532 85.3601C254.121 86.8821 254.333 88.5238 254.151 90.1455L252.602 103.93C251.645 112.448 255.797 120.731 263.196 125.06C266.517 127.004 270.296 128.028 274.144 128.028H293.784L311.266 130.257C322.135 131.643 332.693 134.849 342.497 139.741L347.923 142.447C359.276 148.112 368.991 156.588 376.142 167.07C380.64 173.664 384.047 180.939 386.232 188.617L387.504 193.089C389.913 201.554 391.134 210.312 391.134 219.112C391.134 234.076 387.603 248.829 380.827 262.17L374.301 275.02L354.165 312.489L341.539 331.567C335.977 339.973 329.784 347.943 323.013 355.409L288.753 393.191L274.84 413.618C272.393 417.21 271.085 421.455 271.085 425.801C271.085 432.501 274.188 438.824 279.488 442.922L299.038 458.041L312.854 471.011L316.969 475.216C321.446 479.793 323.345 486.3 322.034 492.567C320.546 499.671 315.178 505.328 308.161 507.185L305.065 508.004C303.792 508.341 302.493 508.575 301.182 508.702L261.962 512.506L209.765 513.982H159.575L101.051 508.669C99.8932 508.564 98.7475 508.352 97.6286 508.036C89.5059 505.741 83.8973 498.254 83.8973 489.813C83.8973 485.152 85.6098 480.616 88.7093 477.135L91.9322 473.516C93.4154 471.85 95.0701 470.346 96.8687 469.027L105.523 462.682C109.723 459.602 113.48 455.96 116.689 451.858L123.833 442.724C127.026 438.642 128.76 433.609 128.76 428.426C128.76 422.46 126.462 416.722 122.343 412.406L104.008 393.191L63.7862 344.193L50.2203 327.839C41.7527 317.631 34.3274 306.602 28.0551 294.916L17.376 275.02L12.9375 263.133C7.68831 249.075 5 234.19 5 219.183V215.216C5 208.988 5.65922 202.777 6.96664 196.687L7.48942 194.252C9.92396 182.913 14.8777 172.266 21.9839 163.101C28.1352 155.166 35.7724 148.506 44.4693 143.491L47.3617 141.823C58.2029 135.571 70.1799 131.539 82.5949 129.962L97.8203 128.028H127.878C131.51 128.028 135.092 127.18 138.339 125.551C147.384 121.014 152.473 111.163 150.939 101.16Z" stroke="black" stroke-width="9.94523"/>
</mask>
<g mask="url(#mask0_517_343)">
<rect x="-998.983" y="-164.779" width="1755.41" height="718.01" fill="#18363E"/>
</g>
<path d="M910.939 101.16L909.963 94.7942C909.279 90.3341 910.816 85.821 914.081 82.7059C916.65 80.2539 920.065 78.8858 923.617 78.8855L936.149 78.8848L962.531 78.8859L989.344 78.8848L1004.09 78.8862C1008.27 78.8866 1012.02 81.4587 1013.53 85.3601C1014.12 86.8821 1014.33 88.5238 1014.15 90.1455L1012.6 103.93C1011.64 112.448 1015.8 120.731 1023.2 125.06C1026.52 127.004 1030.3 128.028 1034.14 128.028H1053.78L1071.27 130.257C1082.14 131.643 1092.69 134.849 1102.5 139.741L1107.92 142.447C1119.28 148.112 1128.99 156.588 1136.14 167.07C1140.64 173.664 1144.05 180.939 1146.23 188.617L1147.5 193.089C1149.91 201.554 1151.13 210.312 1151.13 219.112C1151.13 234.076 1147.6 248.829 1140.83 262.17L1134.3 275.02L1114.16 312.489L1101.54 331.567C1095.98 339.973 1089.78 347.943 1083.01 355.409L1048.75 393.191L1034.84 413.618C1032.39 417.21 1031.08 421.455 1031.08 425.801C1031.08 432.501 1034.19 438.824 1039.49 442.922L1059.04 458.041L1072.85 471.011L1076.97 475.216C1081.45 479.793 1083.35 486.3 1082.03 492.567C1080.55 499.671 1075.18 505.328 1068.16 507.185L1065.07 508.004C1063.79 508.341 1062.49 508.575 1061.18 508.702L1021.96 512.506L969.765 513.982H919.575L861.051 508.669C859.893 508.564 858.747 508.352 857.629 508.036C849.506 505.741 843.897 498.254 843.897 489.813C843.897 485.152 845.61 480.616 848.709 477.135L851.932 473.516C853.415 471.85 855.07 470.346 856.869 469.027L865.523 462.682C869.723 459.602 873.48 455.96 876.689 451.858L883.833 442.724C887.026 438.642 888.76 433.609 888.76 428.426C888.76 422.46 886.462 416.722 882.343 412.406L864.008 393.191L823.786 344.193L810.22 327.839C801.753 317.631 794.327 306.602 788.055 294.916L777.376 275.02L772.938 263.133C767.688 249.075 765 234.19 765 219.183V215.216C765 208.988 765.659 202.777 766.967 196.687L767.489 194.252C769.924 182.913 774.878 172.266 781.984 163.101C788.135 155.166 795.772 148.506 804.469 143.491L807.362 141.823C818.203 135.571 830.18 131.539 842.595 129.962L857.82 128.028H887.878C891.51 128.028 895.092 127.18 898.339 125.551C907.384 121.014 912.473 111.163 910.939 101.16Z" fill="#18363E"/>
<path d="M910.939 101.16L909.963 94.7942C909.279 90.3341 910.816 85.821 914.081 82.7059C916.65 80.2539 920.065 78.8858 923.617 78.8855L936.149 78.8848L962.531 78.8859L989.344 78.8848L1004.09 78.8862C1008.27 78.8866 1012.02 81.4587 1013.53 85.3601C1014.12 86.8821 1014.33 88.5238 1014.15 90.1455L1012.6 103.93C1011.64 112.448 1015.8 120.731 1023.2 125.06C1026.52 127.004 1030.3 128.028 1034.14 128.028H1053.78L1071.27 130.257C1082.14 131.643 1092.69 134.849 1102.5 139.741L1107.92 142.447C1119.28 148.112 1128.99 156.588 1136.14 167.07C1140.64 173.664 1144.05 180.939 1146.23 188.617L1147.5 193.089C1149.91 201.554 1151.13 210.312 1151.13 219.112C1151.13 234.076 1147.6 248.829 1140.83 262.17L1134.3 275.02L1114.16 312.489L1101.54 331.567C1095.98 339.973 1089.78 347.943 1083.01 355.409L1048.75 393.191L1034.84 413.618C1032.39 417.21 1031.08 421.455 1031.08 425.801C1031.08 432.501 1034.19 438.824 1039.49 442.922L1059.04 458.041L1072.85 471.011L1076.97 475.216C1081.45 479.793 1083.35 486.3 1082.03 492.567C1080.55 499.671 1075.18 505.328 1068.16 507.185L1065.07 508.004C1063.79 508.341 1062.49 508.575 1061.18 508.702L1021.96 512.506L969.765 513.982H919.575L861.051 508.669C859.893 508.564 858.747 508.352 857.629 508.036C849.506 505.741 843.897 498.254 843.897 489.813C843.897 485.152 845.61 480.616 848.709 477.135L851.932 473.516C853.415 471.85 855.07 470.346 856.869 469.027L865.523 462.682C869.723 459.602 873.48 455.96 876.689 451.858L883.833 442.724C887.026 438.642 888.76 433.609 888.76 428.426C888.76 422.46 886.462 416.722 882.343 412.406L864.008 393.191L823.786 344.193L810.22 327.839C801.753 317.631 794.327 306.602 788.055 294.916L777.376 275.02L772.938 263.133C767.688 249.075 765 234.19 765 219.183V215.216C765 208.988 765.659 202.777 766.967 196.687L767.489 194.252C769.924 182.913 774.878 172.266 781.984 163.101C788.135 155.166 795.772 148.506 804.469 143.491L807.362 141.823C818.203 135.571 830.18 131.539 842.595 129.962L857.82 128.028H887.878C891.51 128.028 895.092 127.18 898.339 125.551C907.384 121.014 912.473 111.163 910.939 101.16Z" fill="#18363E"/>
<path d="M910.939 101.16L909.963 94.7942C909.279 90.3341 910.816 85.821 914.081 82.7059C916.65 80.2539 920.065 78.8858 923.617 78.8855L936.149 78.8848L962.531 78.8859L989.344 78.8848L1004.09 78.8862C1008.27 78.8866 1012.02 81.4587 1013.53 85.3601C1014.12 86.8821 1014.33 88.5238 1014.15 90.1455L1012.6 103.93C1011.64 112.448 1015.8 120.731 1023.2 125.06C1026.52 127.004 1030.3 128.028 1034.14 128.028H1053.78L1071.27 130.257C1082.14 131.643 1092.69 134.849 1102.5 139.741L1107.92 142.447C1119.28 148.112 1128.99 156.588 1136.14 167.07C1140.64 173.664 1144.05 180.939 1146.23 188.617L1147.5 193.089C1149.91 201.554 1151.13 210.312 1151.13 219.112C1151.13 234.076 1147.6 248.829 1140.83 262.17L1134.3 275.02L1114.16 312.489L1101.54 331.567C1095.98 339.973 1089.78 347.943 1083.01 355.409L1048.75 393.191L1034.84 413.618C1032.39 417.21 1031.08 421.455 1031.08 425.801C1031.08 432.501 1034.19 438.824 1039.49 442.922L1059.04 458.041L1072.85 471.011L1076.97 475.216C1081.45 479.793 1083.35 486.3 1082.03 492.567C1080.55 499.671 1075.18 505.328 1068.16 507.185L1065.07 508.004C1063.79 508.341 1062.49 508.575 1061.18 508.702L1021.96 512.506L969.765 513.982H919.575L861.051 508.669C859.893 508.564 858.747 508.352 857.629 508.036C849.506 505.741 843.897 498.254 843.897 489.813C843.897 485.152 845.61 480.616 848.709 477.135L851.932 473.516C853.415 471.85 855.07 470.346 856.869 469.027L865.523 462.682C869.723 459.602 873.48 455.96 876.689 451.858L883.833 442.724C887.026 438.642 888.76 433.609 888.76 428.426C888.76 422.46 886.462 416.722 882.343 412.406L864.008 393.191L823.786 344.193L810.22 327.839C801.753 317.631 794.327 306.602 788.055 294.916L777.376 275.02L772.938 263.133C767.688 249.075 765 234.19 765 219.183V215.216C765 208.988 765.659 202.777 766.967 196.687L767.489 194.252C769.924 182.913 774.878 172.266 781.984 163.101C788.135 155.166 795.772 148.506 804.469 143.491L807.362 141.823C818.203 135.571 830.18 131.539 842.595 129.962L857.82 128.028H887.878C891.51 128.028 895.092 127.18 898.339 125.551C907.384 121.014 912.473 111.163 910.939 101.16Z" fill="#18363E"/>
<path d="M910.939 101.16L909.963 94.7942C909.279 90.3341 910.816 85.821 914.081 82.7059C916.65 80.2539 920.065 78.8858 923.617 78.8855L936.149 78.8848L962.531 78.8859L989.344 78.8848L1004.09 78.8862C1008.27 78.8866 1012.02 81.4587 1013.53 85.3601C1014.12 86.8821 1014.33 88.5238 1014.15 90.1455L1012.6 103.93C1011.64 112.448 1015.8 120.731 1023.2 125.06C1026.52 127.004 1030.3 128.028 1034.14 128.028H1053.78L1071.27 130.257C1082.14 131.643 1092.69 134.849 1102.5 139.741L1107.92 142.447C1119.28 148.112 1128.99 156.588 1136.14 167.07C1140.64 173.664 1144.05 180.939 1146.23 188.617L1147.5 193.089C1149.91 201.554 1151.13 210.312 1151.13 219.112C1151.13 234.076 1147.6 248.829 1140.83 262.17L1134.3 275.02L1114.16 312.489L1101.54 331.567C1095.98 339.973 1089.78 347.943 1083.01 355.409L1048.75 393.191L1034.84 413.618C1032.39 417.21 1031.08 421.455 1031.08 425.801C1031.08 432.501 1034.19 438.824 1039.49 442.922L1059.04 458.041L1072.85 471.011L1076.97 475.216C1081.45 479.793 1083.35 486.3 1082.03 492.567C1080.55 499.671 1075.18 505.328 1068.16 507.185L1065.07 508.004C1063.79 508.341 1062.49 508.575 1061.18 508.702L1021.96 512.506L969.765 513.982H919.575L861.051 508.669C859.893 508.564 858.747 508.352 857.629 508.036C849.506 505.741 843.897 498.254 843.897 489.813C843.897 485.152 845.61 480.616 848.709 477.135L851.932 473.516C853.415 471.85 855.07 470.346 856.869 469.027L865.523 462.682C869.723 459.602 873.48 455.96 876.689 451.858L883.833 442.724C887.026 438.642 888.76 433.609 888.76 428.426C888.76 422.46 886.462 416.722 882.343 412.406L864.008 393.191L823.786 344.193L810.22 327.839C801.753 317.631 794.327 306.602 788.055 294.916L777.376 275.02L772.938 263.133C767.688 249.075 765 234.19 765 219.183V215.216C765 208.988 765.659 202.777 766.967 196.687L767.489 194.252C769.924 182.913 774.878 172.266 781.984 163.101C788.135 155.166 795.772 148.506 804.469 143.491L807.362 141.823C818.203 135.571 830.18 131.539 842.595 129.962L857.82 128.028H887.878C891.51 128.028 895.092 127.18 898.339 125.551C907.384 121.014 912.473 111.163 910.939 101.16Z" fill="#18363E"/>
<path d="M1013.48 32.7341L1012.75 43.0637C1012.19 50.8476 1005.72 56.8803 997.914 56.8803H926.111C915.638 56.8803 907.148 48.3904 907.148 37.9175V29.6289C907.148 16.0271 918.174 5.00061 931.776 5.00061H933.167L989.539 5C1001.07 5.00035 1010.93 13.319 1012.86 24.6898L1013.18 26.5598C1013.52 28.5985 1013.62 30.6714 1013.48 32.7341Z" fill="#18363E" stroke="black" stroke-width="9.94523"/>
<mask id="mask1_517_343" style="mask-type:alpha" maskUnits="userSpaceOnUse" x="760" y="0" width="397" height="519">
<path d="M961.28 213.837L956.257 221.066L951.813 213.837L950.354 211.703C948.627 209.179 946.63 206.852 944.397 204.763L944.08 204.467C941.393 201.953 938.362 199.834 935.078 198.172C931.32 196.271 927.278 194.994 923.109 194.39L922.293 194.272C920.21 193.97 918.108 193.819 916.003 193.819H915.355C912.363 193.819 909.377 194.096 906.436 194.647L905.34 194.852C903.74 195.151 902.163 195.568 900.624 196.098C897.166 197.289 893.928 199.041 891.04 201.284L887.288 204.199L886.665 204.837C883.357 208.23 880.454 211.997 878.015 216.061L876.986 218.458C875.874 221.049 875.13 223.782 874.774 226.579C874.488 228.827 874.456 231.101 874.678 233.357L874.907 235.683C875.175 238.414 875.664 241.119 876.367 243.771L878.015 249.981L881.685 259.619C885.415 266.775 889.686 273.636 894.461 280.142L896.947 283.529L907.38 296.689L922.062 311.703L944.279 332.648L956.643 344.325L973.451 327.828L984.656 318.005L997.406 305.03L1010.16 291.314L1017.69 281.676L1026.38 268.886L1030.44 261.287L1034.33 252.133C1035.73 248.854 1036.77 245.436 1037.45 241.937L1037.56 241.332C1038.09 238.578 1038.36 235.779 1038.36 232.974C1038.36 229.129 1037.86 225.301 1036.87 221.587L1036.43 219.954L1035.93 218.723C1034.6 215.483 1032.79 212.458 1030.58 209.746C1029.07 207.906 1027.39 206.221 1025.55 204.717L1023.1 202.716L1018.59 199.59C1016.96 198.464 1015.23 197.511 1013.4 196.746C1011.12 195.787 1008.72 195.131 1006.27 194.795L999.145 193.819H995.509C992.407 193.819 989.317 194.204 986.309 194.967C982.525 195.925 978.913 197.471 975.606 199.546C972.26 201.645 969.264 204.261 966.734 207.295L961.28 213.837Z" fill="black"/>
<path d="M1013.48 32.7351L1012.75 43.0646C1012.19 50.8486 1005.72 56.8813 997.914 56.8813H926.111C915.638 56.8813 907.148 48.3913 907.148 37.9185V29.6298C907.148 16.028 918.174 5.00159 931.776 5.00159H933.167L989.539 5.00098C1001.07 5.00133 1010.93 13.32 1012.86 24.6907L1013.18 26.5608C1013.52 28.5995 1013.62 30.6723 1013.48 32.7351Z" stroke="black" stroke-width="9.94523"/>
<path d="M910.939 101.16L909.963 94.7942C909.279 90.3341 910.816 85.821 914.081 82.7059C916.65 80.2539 920.065 78.8858 923.617 78.8855L936.149 78.8848L962.531 78.8859L989.344 78.8848L1004.09 78.8862C1008.27 78.8866 1012.02 81.4587 1013.53 85.3601C1014.12 86.8821 1014.33 88.5238 1014.15 90.1455L1012.6 103.93C1011.64 112.448 1015.8 120.731 1023.2 125.06C1026.52 127.004 1030.3 128.028 1034.14 128.028H1053.78L1071.27 130.257C1082.14 131.643 1092.69 134.849 1102.5 139.741L1107.92 142.447C1119.28 148.112 1128.99 156.588 1136.14 167.07C1140.64 173.664 1144.05 180.939 1146.23 188.617L1147.5 193.089C1149.91 201.554 1151.13 210.312 1151.13 219.112C1151.13 234.076 1147.6 248.829 1140.83 262.17L1134.3 275.02L1114.16 312.489L1101.54 331.567C1095.98 339.973 1089.78 347.943 1083.01 355.409L1048.75 393.191L1034.84 413.618C1032.39 417.21 1031.08 421.455 1031.08 425.801C1031.08 432.501 1034.19 438.824 1039.49 442.922L1059.04 458.041L1072.85 471.011L1076.97 475.216C1081.45 479.793 1083.35 486.3 1082.03 492.567C1080.55 499.671 1075.18 505.328 1068.16 507.185L1065.07 508.004C1063.79 508.341 1062.49 508.575 1061.18 508.702L1021.96 512.506L969.765 513.982H919.575L861.051 508.669C859.893 508.564 858.747 508.352 857.629 508.036C849.506 505.741 843.897 498.254 843.897 489.813C843.897 485.152 845.61 480.616 848.709 477.135L851.932 473.516C853.415 471.85 855.07 470.346 856.869 469.027L865.523 462.682C869.723 459.602 873.48 455.96 876.689 451.858L883.833 442.724C887.026 438.642 888.76 433.609 888.76 428.426C888.76 422.46 886.462 416.722 882.343 412.406L864.008 393.191L823.786 344.193L810.22 327.839C801.753 317.631 794.327 306.602 788.055 294.916L777.376 275.02L772.938 263.133C767.688 249.075 765 234.19 765 219.183V215.216C765 208.988 765.659 202.777 766.967 196.687L767.489 194.252C769.924 182.913 774.878 172.266 781.984 163.101C788.135 155.166 795.772 148.506 804.469 143.491L807.362 141.823C818.203 135.571 830.18 131.539 842.595 129.962L857.82 128.028H887.878C891.51 128.028 895.092 127.18 898.339 125.551C907.384 121.014 912.473 111.163 910.939 101.16Z" stroke="black" stroke-width="9.94523"/>
</mask>
<g mask="url(#mask1_517_343)">
<rect x="-238.983" y="-164.779" width="1755.41" height="718.01" fill="#18363E"/>
</g>
<path d="M1748.94 101.16L1747.96 94.7942C1747.28 90.3341 1748.82 85.821 1752.08 82.7059C1754.65 80.2539 1758.07 78.8858 1761.62 78.8855L1774.15 78.8848L1800.53 78.8859L1827.34 78.8848L1842.09 78.8862C1846.27 78.8866 1850.02 81.4587 1851.53 85.3601C1852.12 86.8821 1852.33 88.5238 1852.15 90.1455L1850.6 103.93C1849.64 112.448 1853.8 120.731 1861.2 125.06C1864.52 127.004 1868.3 128.028 1872.14 128.028H1891.78L1909.27 130.257C1920.14 131.643 1930.69 134.849 1940.5 139.741L1945.92 142.447C1957.28 148.112 1966.99 156.588 1974.14 167.07C1978.64 173.664 1982.05 180.939 1984.23 188.617L1985.5 193.089C1987.91 201.554 1989.13 210.312 1989.13 219.112C1989.13 234.076 1985.6 248.829 1978.83 262.17L1972.3 275.02L1952.16 312.489L1939.54 331.567C1933.98 339.973 1927.78 347.943 1921.01 355.409L1886.75 393.191L1872.84 413.618C1870.39 417.21 1869.08 421.455 1869.08 425.801C1869.08 432.501 1872.19 438.824 1877.49 442.922L1897.04 458.041L1910.85 471.011L1914.97 475.216C1919.45 479.793 1921.35 486.3 1920.03 492.567C1918.55 499.671 1913.18 505.328 1906.16 507.185L1903.07 508.004C1901.79 508.341 1900.49 508.575 1899.18 508.702L1859.96 512.506L1807.77 513.982H1757.57L1699.05 508.669C1697.89 508.564 1696.75 508.352 1695.63 508.036C1687.51 505.741 1681.9 498.254 1681.9 489.813C1681.9 485.152 1683.61 480.616 1686.71 477.135L1689.93 473.516C1691.42 471.85 1693.07 470.346 1694.87 469.027L1703.52 462.682C1707.72 459.602 1711.48 455.96 1714.69 451.858L1721.83 442.724C1725.03 438.642 1726.76 433.609 1726.76 428.426C1726.76 422.46 1724.46 416.722 1720.34 412.406L1702.01 393.191L1661.79 344.193L1648.22 327.839C1639.75 317.631 1632.33 306.602 1626.06 294.916L1615.38 275.02L1610.94 263.133C1605.69 249.075 1603 234.19 1603 219.183V215.216C1603 208.988 1603.66 202.777 1604.97 196.687L1605.49 194.252C1607.92 182.913 1612.88 172.266 1619.98 163.101C1626.14 155.166 1633.77 148.506 1642.47 143.491L1645.36 141.823C1656.2 135.571 1668.18 131.539 1680.59 129.962L1695.82 128.028H1725.88C1729.51 128.028 1733.09 127.18 1736.34 125.551C1745.38 121.014 1750.47 111.163 1748.94 101.16Z" fill="#18363E"/>
<path d="M1748.94 101.16L1747.96 94.7942C1747.28 90.3341 1748.82 85.821 1752.08 82.7059C1754.65 80.2539 1758.07 78.8858 1761.62 78.8855L1774.15 78.8848L1800.53 78.8859L1827.34 78.8848L1842.09 78.8862C1846.27 78.8866 1850.02 81.4587 1851.53 85.3601C1852.12 86.8821 1852.33 88.5238 1852.15 90.1455L1850.6 103.93C1849.64 112.448 1853.8 120.731 1861.2 125.06C1864.52 127.004 1868.3 128.028 1872.14 128.028H1891.78L1909.27 130.257C1920.14 131.643 1930.69 134.849 1940.5 139.741L1945.92 142.447C1957.28 148.112 1966.99 156.588 1974.14 167.07C1978.64 173.664 1982.05 180.939 1984.23 188.617L1985.5 193.089C1987.91 201.554 1989.13 210.312 1989.13 219.112C1989.13 234.076 1985.6 248.829 1978.83 262.17L1972.3 275.02L1952.16 312.489L1939.54 331.567C1933.98 339.973 1927.78 347.943 1921.01 355.409L1886.75 393.191L1872.84 413.618C1870.39 417.21 1869.08 421.455 1869.08 425.801C1869.08 432.501 1872.19 438.824 1877.49 442.922L1897.04 458.041L1910.85 471.011L1914.97 475.216C1919.45 479.793 1921.35 486.3 1920.03 492.567C1918.55 499.671 1913.18 505.328 1906.16 507.185L1903.07 508.004C1901.79 508.341 1900.49 508.575 1899.18 508.702L1859.96 512.506L1807.77 513.982H1757.57L1699.05 508.669C1697.89 508.564 1696.75 508.352 1695.63 508.036C1687.51 505.741 1681.9 498.254 1681.9 489.813C1681.9 485.152 1683.61 480.616 1686.71 477.135L1689.93 473.516C1691.42 471.85 1693.07 470.346 1694.87 469.027L1703.52 462.682C1707.72 459.602 1711.48 455.96 1714.69 451.858L1721.83 442.724C1725.03 438.642 1726.76 433.609 1726.76 428.426C1726.76 422.46 1724.46 416.722 1720.34 412.406L1702.01 393.191L1661.79 344.193L1648.22 327.839C1639.75 317.631 1632.33 306.602 1626.06 294.916L1615.38 275.02L1610.94 263.133C1605.69 249.075 1603 234.19 1603 219.183V215.216C1603 208.988 1603.66 202.777 1604.97 196.687L1605.49 194.252C1607.92 182.913 1612.88 172.266 1619.98 163.101C1626.14 155.166 1633.77 148.506 1642.47 143.491L1645.36 141.823C1656.2 135.571 1668.18 131.539 1680.59 129.962L1695.82 128.028H1725.88C1729.51 128.028 1733.09 127.18 1736.34 125.551C1745.38 121.014 1750.47 111.163 1748.94 101.16Z" fill="#18363E"/>
<path d="M1748.94 101.16L1747.96 94.7942C1747.28 90.3341 1748.82 85.821 1752.08 82.7059C1754.65 80.2539 1758.07 78.8858 1761.62 78.8855L1774.15 78.8848L1800.53 78.8859L1827.34 78.8848L1842.09 78.8862C1846.27 78.8866 1850.02 81.4587 1851.53 85.3601C1852.12 86.8821 1852.33 88.5238 1852.15 90.1455L1850.6 103.93C1849.64 112.448 1853.8 120.731 1861.2 125.06C1864.52 127.004 1868.3 128.028 1872.14 128.028H1891.78L1909.27 130.257C1920.14 131.643 1930.69 134.849 1940.5 139.741L1945.92 142.447C1957.28 148.112 1966.99 156.588 1974.14 167.07C1978.64 173.664 1982.05 180.939 1984.23 188.617L1985.5 193.089C1987.91 201.554 1989.13 210.312 1989.13 219.112C1989.13 234.076 1985.6 248.829 1978.83 262.17L1972.3 275.02L1952.16 312.489L1939.54 331.567C1933.98 339.973 1927.78 347.943 1921.01 355.409L1886.75 393.191L1872.84 413.618C1870.39 417.21 1869.08 421.455 1869.08 425.801C1869.08 432.501 1872.19 438.824 1877.49 442.922L1897.04 458.041L1910.85 471.011L1914.97 475.216C1919.45 479.793 1921.35 486.3 1920.03 492.567C1918.55 499.671 1913.18 505.328 1906.16 507.185L1903.07 508.004C1901.79 508.341 1900.49 508.575 1899.18 508.702L1859.96 512.506L1807.77 513.982H1757.57L1699.05 508.669C1697.89 508.564 1696.75 508.352 1695.63 508.036C1687.51 505.741 1681.9 498.254 1681.9 489.813C1681.9 485.152 1683.61 480.616 1686.71 477.135L1689.93 473.516C1691.42 471.85 1693.07 470.346 1694.87 469.027L1703.52 462.682C1707.72 459.602 1711.48 455.96 1714.69 451.858L1721.83 442.724C1725.03 438.642 1726.76 433.609 1726.76 428.426C1726.76 422.46 1724.46 416.722 1720.34 412.406L1702.01 393.191L1661.79 344.193L1648.22 327.839C1639.75 317.631 1632.33 306.602 1626.06 294.916L1615.38 275.02L1610.94 263.133C1605.69 249.075 1603 234.19 1603 219.183V215.216C1603 208.988 1603.66 202.777 1604.97 196.687L1605.49 194.252C1607.92 182.913 1612.88 172.266 1619.98 163.101C1626.14 155.166 1633.77 148.506 1642.47 143.491L1645.36 141.823C1656.2 135.571 1668.18 131.539 1680.59 129.962L1695.82 128.028H1725.88C1729.51 128.028 1733.09 127.18 1736.34 125.551C1745.38 121.014 1750.47 111.163 1748.94 101.16Z" fill="#18363E"/>
<path d="M1748.94 101.16L1747.96 94.7942C1747.28 90.3341 1748.82 85.821 1752.08 82.7059C1754.65 80.2539 1758.07 78.8858 1761.62 78.8855L1774.15 78.8848L1800.53 78.8859L1827.34 78.8848L1842.09 78.8862C1846.27 78.8866 1850.02 81.4587 1851.53 85.3601C1852.12 86.8821 1852.33 88.5238 1852.15 90.1455L1850.6 103.93C1849.64 112.448 1853.8 120.731 1861.2 125.06C1864.52 127.004 1868.3 128.028 1872.14 128.028H1891.78L1909.27 130.257C1920.14 131.643 1930.69 134.849 1940.5 139.741L1945.92 142.447C1957.28 148.112 1966.99 156.588 1974.14 167.07C1978.64 173.664 1982.05 180.939 1984.23 188.617L1985.5 193.089C1987.91 201.554 1989.13 210.312 1989.13 219.112C1989.13 234.076 1985.6 248.829 1978.83 262.17L1972.3 275.02L1952.16 312.489L1939.54 331.567C1933.98 339.973 1927.78 347.943 1921.01 355.409L1886.75 393.191L1872.84 413.618C1870.39 417.21 1869.08 421.455 1869.08 425.801C1869.08 432.501 1872.19 438.824 1877.49 442.922L1897.04 458.041L1910.85 471.011L1914.97 475.216C1919.45 479.793 1921.35 486.3 1920.03 492.567C1918.55 499.671 1913.18 505.328 1906.16 507.185L1903.07 508.004C1901.79 508.341 1900.49 508.575 1899.18 508.702L1859.96 512.506L1807.77 513.982H1757.57L1699.05 508.669C1697.89 508.564 1696.75 508.352 1695.63 508.036C1687.51 505.741 1681.9 498.254 1681.9 489.813C1681.9 485.152 1683.61 480.616 1686.71 477.135L1689.93 473.516C1691.42 471.85 1693.07 470.346 1694.87 469.027L1703.52 462.682C1707.72 459.602 1711.48 455.96 1714.69 451.858L1721.83 442.724C1725.03 438.642 1726.76 433.609 1726.76 428.426C1726.76 422.46 1724.46 416.722 1720.34 412.406L1702.01 393.191L1661.79 344.193L1648.22 327.839C1639.75 317.631 1632.33 306.602 1626.06 294.916L1615.38 275.02L1610.94 263.133C1605.69 249.075 1603 234.19 1603 219.183V215.216C1603 208.988 1603.66 202.777 1604.97 196.687L1605.49 194.252C1607.92 182.913 1612.88 172.266 1619.98 163.101C1626.14 155.166 1633.77 148.506 1642.47 143.491L1645.36 141.823C1656.2 135.571 1668.18 131.539 1680.59 129.962L1695.82 128.028H1725.88C1729.51 128.028 1733.09 127.18 1736.34 125.551C1745.38 121.014 1750.47 111.163 1748.94 101.16Z" fill="#18363E"/>
<path d="M1851.48 32.7341L1850.75 43.0637C1850.19 50.8476 1843.72 56.8803 1835.91 56.8803H1764.11C1753.64 56.8803 1745.15 48.3904 1745.15 37.9175V29.6289C1745.15 16.0271 1756.17 5.00061 1769.78 5.00061H1771.17L1827.54 5C1839.07 5.00035 1848.93 13.319 1850.86 24.6898L1851.18 26.5598C1851.52 28.5985 1851.62 30.6714 1851.48 32.7341Z" fill="#18363E" stroke="black" stroke-width="9.94523"/>
<mask id="mask2_517_343" style="mask-type:alpha" maskUnits="userSpaceOnUse" x="1598" y="0" width="397" height="519">
<path d="M1799.28 213.837L1794.26 221.066L1789.81 213.837L1788.35 211.703C1786.63 209.179 1784.63 206.852 1782.4 204.763L1782.08 204.467C1779.39 201.953 1776.36 199.834 1773.08 198.172C1769.32 196.271 1765.28 194.994 1761.11 194.39L1760.29 194.272C1758.21 193.97 1756.11 193.819 1754 193.819H1753.36C1750.36 193.819 1747.38 194.096 1744.44 194.647L1743.34 194.852C1741.74 195.151 1740.16 195.568 1738.62 196.098C1735.17 197.289 1731.93 199.041 1729.04 201.284L1725.29 204.199L1724.67 204.837C1721.36 208.23 1718.45 211.997 1716.01 216.061L1714.99 218.458C1713.87 221.049 1713.13 223.782 1712.77 226.579C1712.49 228.827 1712.46 231.101 1712.68 233.357L1712.91 235.683C1713.18 238.414 1713.66 241.119 1714.37 243.771L1716.01 249.981L1719.69 259.619C1723.41 266.775 1727.69 273.636 1732.46 280.142L1734.95 283.529L1745.38 296.689L1760.06 311.703L1782.28 332.648L1794.64 344.325L1811.45 327.828L1822.66 318.005L1835.41 305.03L1848.16 291.314L1855.69 281.676L1864.38 268.886L1868.44 261.287L1872.33 252.133C1873.73 248.854 1874.77 245.436 1875.45 241.937L1875.56 241.332C1876.09 238.578 1876.36 235.779 1876.36 232.974C1876.36 229.129 1875.86 225.301 1874.87 221.587L1874.43 219.954L1873.93 218.723C1872.59 215.483 1870.79 212.458 1868.58 209.746C1867.07 207.906 1865.39 206.221 1863.55 204.717L1861.1 202.716L1856.59 199.59C1854.96 198.464 1853.23 197.511 1851.4 196.746C1849.12 195.787 1846.72 195.131 1844.27 194.795L1837.14 193.819H1833.51C1830.41 193.819 1827.32 194.204 1824.31 194.967C1820.53 195.925 1816.91 197.471 1813.61 199.546C1810.26 201.645 1807.26 204.261 1804.73 207.295L1799.28 213.837Z" fill="black"/>
<path d="M1851.48 32.7351L1850.75 43.0646C1850.19 50.8486 1843.72 56.8813 1835.91 56.8813H1764.11C1753.64 56.8813 1745.15 48.3913 1745.15 37.9185V29.6298C1745.15 16.028 1756.17 5.00159 1769.78 5.00159H1771.17L1827.54 5.00098C1839.07 5.00133 1848.93 13.32 1850.86 24.6907L1851.18 26.5608C1851.52 28.5995 1851.62 30.6723 1851.48 32.7351Z" stroke="black" stroke-width="9.94523"/>
<path d="M1748.94 101.16L1747.96 94.7942C1747.28 90.3341 1748.82 85.821 1752.08 82.7059C1754.65 80.2539 1758.07 78.8858 1761.62 78.8855L1774.15 78.8848L1800.53 78.8859L1827.34 78.8848L1842.09 78.8862C1846.27 78.8866 1850.02 81.4587 1851.53 85.3601C1852.12 86.8821 1852.33 88.5238 1852.15 90.1455L1850.6 103.93C1849.64 112.448 1853.8 120.731 1861.2 125.06C1864.52 127.004 1868.3 128.028 1872.14 128.028H1891.78L1909.27 130.257C1920.14 131.643 1930.69 134.849 1940.5 139.741L1945.92 142.447C1957.28 148.112 1966.99 156.588 1974.14 167.07C1978.64 173.664 1982.05 180.939 1984.23 188.617L1985.5 193.089C1987.91 201.554 1989.13 210.312 1989.13 219.112C1989.13 234.076 1985.6 248.829 1978.83 262.17L1972.3 275.02L1952.16 312.489L1939.54 331.567C1933.98 339.973 1927.78 347.943 1921.01 355.409L1886.75 393.191L1872.84 413.618C1870.39 417.21 1869.08 421.455 1869.08 425.801C1869.08 432.501 1872.19 438.824 1877.49 442.922L1897.04 458.041L1910.85 471.011L1914.97 475.216C1919.45 479.793 1921.35 486.3 1920.03 492.567C1918.55 499.671 1913.18 505.328 1906.16 507.185L1903.07 508.004C1901.79 508.341 1900.49 508.575 1899.18 508.702L1859.96 512.506L1807.77 513.982H1757.57L1699.05 508.669C1697.89 508.564 1696.75 508.352 1695.63 508.036C1687.51 505.741 1681.9 498.254 1681.9 489.813C1681.9 485.152 1683.61 480.616 1686.71 477.135L1689.93 473.516C1691.42 471.85 1693.07 470.346 1694.87 469.027L1703.52 462.682C1707.72 459.602 1711.48 455.96 1714.69 451.858L1721.83 442.724C1725.03 438.642 1726.76 433.609 1726.76 428.426C1726.76 422.46 1724.46 416.722 1720.34 412.406L1702.01 393.191L1661.79 344.193L1648.22 327.839C1639.75 317.631 1632.33 306.602 1626.06 294.916L1615.38 275.02L1610.94 263.133C1605.69 249.075 1603 234.19 1603 219.183V215.216C1603 208.988 1603.66 202.777 1604.97 196.687L1605.49 194.252C1607.92 182.913 1612.88 172.266 1619.98 163.101C1626.14 155.166 1633.77 148.506 1642.47 143.491L1645.36 141.823C1656.2 135.571 1668.18 131.539 1680.59 129.962L1695.82 128.028H1725.88C1729.51 128.028 1733.09 127.18 1736.34 125.551C1745.38 121.014 1750.47 111.163 1748.94 101.16Z" stroke="black" stroke-width="9.94523"/>
</mask>
<g mask="url(#mask2_517_343)">
<rect x="599.017" y="-164.779" width="1755.41" height="718.01" fill="#18363E"/>
</g>
<path d="M2586.94 101.16L2585.96 94.7942C2585.28 90.3341 2586.82 85.821 2590.08 82.7059C2592.65 80.2539 2596.07 78.8858 2599.62 78.8855L2612.15 78.8848L2638.53 78.8859L2665.34 78.8848L2680.09 78.8862C2684.27 78.8866 2688.02 81.4587 2689.53 85.3601C2690.12 86.8821 2690.33 88.5238 2690.15 90.1455L2688.6 103.93C2687.64 112.448 2691.8 120.731 2699.2 125.06C2702.52 127.004 2706.3 128.028 2710.14 128.028H2729.78L2747.27 130.257C2758.14 131.643 2768.69 134.849 2778.5 139.741L2783.92 142.447C2795.28 148.112 2804.99 156.588 2812.14 167.07C2816.64 173.664 2820.05 180.939 2822.23 188.617L2823.5 193.089C2825.91 201.554 2827.13 210.312 2827.13 219.112C2827.13 234.076 2823.6 248.829 2816.83 262.17L2810.3 275.02L2790.16 312.489L2777.54 331.567C2771.98 339.973 2765.78 347.943 2759.01 355.409L2724.75 393.191L2710.84 413.618C2708.39 417.21 2707.08 421.455 2707.08 425.801C2707.08 432.501 2710.19 438.824 2715.49 442.922L2735.04 458.041L2748.85 471.011L2752.97 475.216C2757.45 479.793 2759.35 486.3 2758.03 492.567C2756.55 499.671 2751.18 505.328 2744.16 507.185L2741.07 508.004C2739.79 508.341 2738.49 508.575 2737.18 508.702L2697.96 512.506L2645.77 513.982H2595.57L2537.05 508.669C2535.89 508.564 2534.75 508.352 2533.63 508.036C2525.51 505.741 2519.9 498.254 2519.9 489.813C2519.9 485.152 2521.61 480.616 2524.71 477.135L2527.93 473.516C2529.42 471.85 2531.07 470.346 2532.87 469.027L2541.52 462.682C2545.72 459.602 2549.48 455.96 2552.69 451.858L2559.83 442.724C2563.03 438.642 2564.76 433.609 2564.76 428.426C2564.76 422.46 2562.46 416.722 2558.34 412.406L2540.01 393.191L2499.79 344.193L2486.22 327.839C2477.75 317.631 2470.33 306.602 2464.06 294.916L2453.38 275.02L2448.94 263.133C2443.69 249.075 2441 234.19 2441 219.183V215.216C2441 208.988 2441.66 202.777 2442.97 196.687L2443.49 194.252C2445.92 182.913 2450.88 172.266 2457.98 163.101C2464.14 155.166 2471.77 148.506 2480.47 143.491L2483.36 141.823C2494.2 135.571 2506.18 131.539 2518.59 129.962L2533.82 128.028H2563.88C2567.51 128.028 2571.09 127.18 2574.34 125.551C2583.38 121.014 2588.47 111.163 2586.94 101.16Z" fill="#18363E"/>
<path d="M2586.94 101.16L2585.96 94.7942C2585.28 90.3341 2586.82 85.821 2590.08 82.7059C2592.65 80.2539 2596.07 78.8858 2599.62 78.8855L2612.15 78.8848L2638.53 78.8859L2665.34 78.8848L2680.09 78.8862C2684.27 78.8866 2688.02 81.4587 2689.53 85.3601C2690.12 86.8821 2690.33 88.5238 2690.15 90.1455L2688.6 103.93C2687.64 112.448 2691.8 120.731 2699.2 125.06C2702.52 127.004 2706.3 128.028 2710.14 128.028H2729.78L2747.27 130.257C2758.14 131.643 2768.69 134.849 2778.5 139.741L2783.92 142.447C2795.28 148.112 2804.99 156.588 2812.14 167.07C2816.64 173.664 2820.05 180.939 2822.23 188.617L2823.5 193.089C2825.91 201.554 2827.13 210.312 2827.13 219.112C2827.13 234.076 2823.6 248.829 2816.83 262.17L2810.3 275.02L2790.16 312.489L2777.54 331.567C2771.98 339.973 2765.78 347.943 2759.01 355.409L2724.75 393.191L2710.84 413.618C2708.39 417.21 2707.08 421.455 2707.08 425.801C2707.08 432.501 2710.19 438.824 2715.49 442.922L2735.04 458.041L2748.85 471.011L2752.97 475.216C2757.45 479.793 2759.35 486.3 2758.03 492.567C2756.55 499.671 2751.18 505.328 2744.16 507.185L2741.07 508.004C2739.79 508.341 2738.49 508.575 2737.18 508.702L2697.96 512.506L2645.77 513.982H2595.57L2537.05 508.669C2535.89 508.564 2534.75 508.352 2533.63 508.036C2525.51 505.741 2519.9 498.254 2519.9 489.813C2519.9 485.152 2521.61 480.616 2524.71 477.135L2527.93 473.516C2529.42 471.85 2531.07 470.346 2532.87 469.027L2541.52 462.682C2545.72 459.602 2549.48 455.96 2552.69 451.858L2559.83 442.724C2563.03 438.642 2564.76 433.609 2564.76 428.426C2564.76 422.46 2562.46 416.722 2558.34 412.406L2540.01 393.191L2499.79 344.193L2486.22 327.839C2477.75 317.631 2470.33 306.602 2464.06 294.916L2453.38 275.02L2448.94 263.133C2443.69 249.075 2441 234.19 2441 219.183V215.216C2441 208.988 2441.66 202.777 2442.97 196.687L2443.49 194.252C2445.92 182.913 2450.88 172.266 2457.98 163.101C2464.14 155.166 2471.77 148.506 2480.47 143.491L2483.36 141.823C2494.2 135.571 2506.18 131.539 2518.59 129.962L2533.82 128.028H2563.88C2567.51 128.028 2571.09 127.18 2574.34 125.551C2583.38 121.014 2588.47 111.163 2586.94 101.16Z" fill="#18363E"/>
<path d="M2586.94 101.16L2585.96 94.7942C2585.28 90.3341 2586.82 85.821 2590.08 82.7059C2592.65 80.2539 2596.07 78.8858 2599.62 78.8855L2612.15 78.8848L2638.53 78.8859L2665.34 78.8848L2680.09 78.8862C2684.27 78.8866 2688.02 81.4587 2689.53 85.3601C2690.12 86.8821 2690.33 88.5238 2690.15 90.1455L2688.6 103.93C2687.64 112.448 2691.8 120.731 2699.2 125.06C2702.52 127.004 2706.3 128.028 2710.14 128.028H2729.78L2747.27 130.257C2758.14 131.643 2768.69 134.849 2778.5 139.741L2783.92 142.447C2795.28 148.112 2804.99 156.588 2812.14 167.07C2816.64 173.664 2820.05 180.939 2822.23 188.617L2823.5 193.089C2825.91 201.554 2827.13 210.312 2827.13 219.112C2827.13 234.076 2823.6 248.829 2816.83 262.17L2810.3 275.02L2790.16 312.489L2777.54 331.567C2771.98 339.973 2765.78 347.943 2759.01 355.409L2724.75 393.191L2710.84 413.618C2708.39 417.21 2707.08 421.455 2707.08 425.801C2707.08 432.501 2710.19 438.824 2715.49 442.922L2735.04 458.041L2748.85 471.011L2752.97 475.216C2757.45 479.793 2759.35 486.3 2758.03 492.567C2756.55 499.671 2751.18 505.328 2744.16 507.185L2741.07 508.004C2739.79 508.341 2738.49 508.575 2737.18 508.702L2697.96 512.506L2645.77 513.982H2595.57L2537.05 508.669C2535.89 508.564 2534.75 508.352 2533.63 508.036C2525.51 505.741 2519.9 498.254 2519.9 489.813C2519.9 485.152 2521.61 480.616 2524.71 477.135L2527.93 473.516C2529.42 471.85 2531.07 470.346 2532.87 469.027L2541.52 462.682C2545.72 459.602 2549.48 455.96 2552.69 451.858L2559.83 442.724C2563.03 438.642 2564.76 433.609 2564.76 428.426C2564.76 422.46 2562.46 416.722 2558.34 412.406L2540.01 393.191L2499.79 344.193L2486.22 327.839C2477.75 317.631 2470.33 306.602 2464.06 294.916L2453.38 275.02L2448.94 263.133C2443.69 249.075 2441 234.19 2441 219.183V215.216C2441 208.988 2441.66 202.777 2442.97 196.687L2443.49 194.252C2445.92 182.913 2450.88 172.266 2457.98 163.101C2464.14 155.166 2471.77 148.506 2480.47 143.491L2483.36 141.823C2494.2 135.571 2506.18 131.539 2518.59 129.962L2533.82 128.028H2563.88C2567.51 128.028 2571.09 127.18 2574.34 125.551C2583.38 121.014 2588.47 111.163 2586.94 101.16Z" fill="#18363E"/>
<path d="M2586.94 101.16L2585.96 94.7942C2585.28 90.3341 2586.82 85.821 2590.08 82.7059C2592.65 80.2539 2596.07 78.8858 2599.62 78.8855L2612.15 78.8848L2638.53 78.8859L2665.34 78.8848L2680.09 78.8862C2684.27 78.8866 2688.02 81.4587 2689.53 85.3601C2690.12 86.8821 2690.33 88.5238 2690.15 90.1455L2688.6 103.93C2687.64 112.448 2691.8 120.731 2699.2 125.06C2702.52 127.004 2706.3 128.028 2710.14 128.028H2729.78L2747.27 130.257C2758.14 131.643 2768.69 134.849 2778.5 139.741L2783.92 142.447C2795.28 148.112 2804.99 156.588 2812.14 167.07C2816.64 173.664 2820.05 180.939 2822.23 188.617L2823.5 193.089C2825.91 201.554 2827.13 210.312 2827.13 219.112C2827.13 234.076 2823.6 248.829 2816.83 262.17L2810.3 275.02L2790.16 312.489L2777.54 331.567C2771.98 339.973 2765.78 347.943 2759.01 355.409L2724.75 393.191L2710.84 413.618C2708.39 417.21 2707.08 421.455 2707.08 425.801C2707.08 432.501 2710.19 438.824 2715.49 442.922L2735.04 458.041L2748.85 471.011L2752.97 475.216C2757.45 479.793 2759.35 486.3 2758.03 492.567C2756.55 499.671 2751.18 505.328 2744.16 507.185L2741.07 508.004C2739.79 508.341 2738.49 508.575 2737.18 508.702L2697.96 512.506L2645.77 513.982H2595.57L2537.05 508.669C2535.89 508.564 2534.75 508.352 2533.63 508.036C2525.51 505.741 2519.9 498.254 2519.9 489.813C2519.9 485.152 2521.61 480.616 2524.71 477.135L2527.93 473.516C2529.42 471.85 2531.07 470.346 2532.87 469.027L2541.52 462.682C2545.72 459.602 2549.48 455.96 2552.69 451.858L2559.83 442.724C2563.03 438.642 2564.76 433.609 2564.76 428.426C2564.76 422.46 2562.46 416.722 2558.34 412.406L2540.01 393.191L2499.79 344.193L2486.22 327.839C2477.75 317.631 2470.33 306.602 2464.06 294.916L2453.38 275.02L2448.94 263.133C2443.69 249.075 2441 234.19 2441 219.183V215.216C2441 208.988 2441.66 202.777 2442.97 196.687L2443.49 194.252C2445.92 182.913 2450.88 172.266 2457.98 163.101C2464.14 155.166 2471.77 148.506 2480.47 143.491L2483.36 141.823C2494.2 135.571 2506.18 131.539 2518.59 129.962L2533.82 128.028H2563.88C2567.51 128.028 2571.09 127.18 2574.34 125.551C2583.38 121.014 2588.47 111.163 2586.94 101.16Z" fill="#18363E"/>
<path d="M2689.48 32.7341L2688.75 43.0637C2688.19 50.8476 2681.72 56.8803 2673.91 56.8803H2602.11C2591.64 56.8803 2583.15 48.3904 2583.15 37.9175V29.6289C2583.15 16.0271 2594.17 5.00061 2607.78 5.00061H2609.17L2665.54 5C2677.07 5.00035 2686.93 13.319 2688.86 24.6898L2689.18 26.5598C2689.52 28.5985 2689.62 30.6714 2689.48 32.7341Z" fill="#18363E" stroke="black" stroke-width="9.94523"/>
<mask id="mask3_517_343" style="mask-type:alpha" maskUnits="userSpaceOnUse" x="2436" y="0" width="397" height="519">
<path d="M2637.28 213.837L2632.26 221.066L2627.81 213.837L2626.35 211.703C2624.63 209.179 2622.63 206.852 2620.4 204.763L2620.08 204.467C2617.39 201.953 2614.36 199.834 2611.08 198.172C2607.32 196.271 2603.28 194.994 2599.11 194.39L2598.29 194.272C2596.21 193.97 2594.11 193.819 2592 193.819H2591.36C2588.36 193.819 2585.38 194.096 2582.44 194.647L2581.34 194.852C2579.74 195.151 2578.16 195.568 2576.62 196.098C2573.17 197.289 2569.93 199.041 2567.04 201.284L2563.29 204.199L2562.67 204.837C2559.36 208.23 2556.45 211.997 2554.01 216.061L2552.99 218.458C2551.87 221.049 2551.13 223.782 2550.77 226.579C2550.49 228.827 2550.46 231.101 2550.68 233.357L2550.91 235.683C2551.18 238.414 2551.66 241.119 2552.37 243.771L2554.01 249.981L2557.69 259.619C2561.41 266.775 2565.69 273.636 2570.46 280.142L2572.95 283.529L2583.38 296.689L2598.06 311.703L2620.28 332.648L2632.64 344.325L2649.45 327.828L2660.66 318.005L2673.41 305.03L2686.16 291.314L2693.69 281.676L2702.38 268.886L2706.44 261.287L2710.33 252.133C2711.73 248.854 2712.77 245.436 2713.45 241.937L2713.56 241.332C2714.09 238.578 2714.36 235.779 2714.36 232.974C2714.36 229.129 2713.86 225.301 2712.87 221.587L2712.43 219.954L2711.93 218.723C2710.59 215.483 2708.79 212.458 2706.58 209.746C2705.07 207.906 2703.39 206.221 2701.55 204.717L2699.1 202.716L2694.59 199.59C2692.96 198.464 2691.23 197.511 2689.4 196.746C2687.12 195.787 2684.72 195.131 2682.27 194.795L2675.14 193.819H2671.51C2668.41 193.819 2665.32 194.204 2662.31 194.967C2658.53 195.925 2654.91 197.471 2651.61 199.546C2648.26 201.645 2645.26 204.261 2642.73 207.295L2637.28 213.837Z" fill="black"/>
<path d="M2689.48 32.7351L2688.75 43.0646C2688.19 50.8486 2681.72 56.8813 2673.91 56.8813H2602.11C2591.64 56.8813 2583.15 48.3913 2583.15 37.9185V29.6298C2583.15 16.028 2594.17 5.00159 2607.78 5.00159H2609.17L2665.54 5.00098C2677.07 5.00133 2686.93 13.32 2688.86 24.6907L2689.18 26.5608C2689.52 28.5995 2689.62 30.6723 2689.48 32.7351Z" stroke="black" stroke-width="9.94523"/>
<path d="M2586.94 101.16L2585.96 94.7942C2585.28 90.3341 2586.82 85.821 2590.08 82.7059C2592.65 80.2539 2596.07 78.8858 2599.62 78.8855L2612.15 78.8848L2638.53 78.8859L2665.34 78.8848L2680.09 78.8862C2684.27 78.8866 2688.02 81.4587 2689.53 85.3601C2690.12 86.8821 2690.33 88.5238 2690.15 90.1455L2688.6 103.93C2687.64 112.448 2691.8 120.731 2699.2 125.06C2702.52 127.004 2706.3 128.028 2710.14 128.028H2729.78L2747.27 130.257C2758.14 131.643 2768.69 134.849 2778.5 139.741L2783.92 142.447C2795.28 148.112 2804.99 156.588 2812.14 167.07C2816.64 173.664 2820.05 180.939 2822.23 188.617L2823.5 193.089C2825.91 201.554 2827.13 210.312 2827.13 219.112C2827.13 234.076 2823.6 248.829 2816.83 262.17L2810.3 275.02L2790.16 312.489L2777.54 331.567C2771.98 339.973 2765.78 347.943 2759.01 355.409L2724.75 393.191L2710.84 413.618C2708.39 417.21 2707.08 421.455 2707.08 425.801C2707.08 432.501 2710.19 438.824 2715.49 442.922L2735.04 458.041L2748.85 471.011L2752.97 475.216C2757.45 479.793 2759.35 486.3 2758.03 492.567C2756.55 499.671 2751.18 505.328 2744.16 507.185L2741.07 508.004C2739.79 508.341 2738.49 508.575 2737.18 508.702L2697.96 512.506L2645.77 513.982H2595.57L2537.05 508.669C2535.89 508.564 2534.75 508.352 2533.63 508.036C2525.51 505.741 2519.9 498.254 2519.9 489.813C2519.9 485.152 2521.61 480.616 2524.71 477.135L2527.93 473.516C2529.42 471.85 2531.07 470.346 2532.87 469.027L2541.52 462.682C2545.72 459.602 2549.48 455.96 2552.69 451.858L2559.83 442.724C2563.03 438.642 2564.76 433.609 2564.76 428.426C2564.76 422.46 2562.46 416.722 2558.34 412.406L2540.01 393.191L2499.79 344.193L2486.22 327.839C2477.75 317.631 2470.33 306.602 2464.06 294.916L2453.38 275.02L2448.94 263.133C2443.69 249.075 2441 234.19 2441 219.183V215.216C2441 208.988 2441.66 202.777 2442.97 196.687L2443.49 194.252C2445.92 182.913 2450.88 172.266 2457.98 163.101C2464.14 155.166 2471.77 148.506 2480.47 143.491L2483.36 141.823C2494.2 135.571 2506.18 131.539 2518.59 129.962L2533.82 128.028H2563.88C2567.51 128.028 2571.09 127.18 2574.34 125.551C2583.38 121.014 2588.47 111.163 2586.94 101.16Z" stroke="black" stroke-width="9.94523"/>
</mask>
<g mask="url(#mask3_517_343)">
<rect x="1437.02" y="-164.779" width="1755.41" height="718.01" fill="#18363E"/>
</g>
<path d="M3424.94 101.16L3423.96 94.7942C3423.28 90.3341 3424.82 85.821 3428.08 82.7059C3430.65 80.2539 3434.07 78.8858 3437.62 78.8855L3450.15 78.8848L3476.53 78.8859L3503.34 78.8848L3518.09 78.8862C3522.27 78.8866 3526.02 81.4587 3527.53 85.3601C3528.12 86.8821 3528.33 88.5238 3528.15 90.1455L3526.6 103.93C3525.64 112.448 3529.8 120.731 3537.2 125.06C3540.52 127.004 3544.3 128.028 3548.14 128.028H3567.78L3585.27 130.257C3596.14 131.643 3606.69 134.849 3616.5 139.741L3621.92 142.447C3633.28 148.112 3642.99 156.588 3650.14 167.07C3654.64 173.664 3658.05 180.939 3660.23 188.617L3661.5 193.089C3663.91 201.554 3665.13 210.312 3665.13 219.112C3665.13 234.076 3661.6 248.829 3654.83 262.17L3648.3 275.02L3628.16 312.489L3615.54 331.567C3609.98 339.973 3603.78 347.943 3597.01 355.409L3562.75 393.191L3548.84 413.618C3546.39 417.21 3545.08 421.455 3545.08 425.801C3545.08 432.501 3548.19 438.824 3553.49 442.922L3573.04 458.041L3586.85 471.011L3590.97 475.216C3595.45 479.793 3597.35 486.3 3596.03 492.567C3594.55 499.671 3589.18 505.328 3582.16 507.185L3579.07 508.004C3577.79 508.341 3576.49 508.575 3575.18 508.702L3535.96 512.506L3483.77 513.982H3433.57L3375.05 508.669C3373.89 508.564 3372.75 508.352 3371.63 508.036C3363.51 505.741 3357.9 498.254 3357.9 489.813C3357.9 485.152 3359.61 480.616 3362.71 477.135L3365.93 473.516C3367.42 471.85 3369.07 470.346 3370.87 469.027L3379.52 462.682C3383.72 459.602 3387.48 455.96 3390.69 451.858L3397.83 442.724C3401.03 438.642 3402.76 433.609 3402.76 428.426C3402.76 422.46 3400.46 416.722 3396.34 412.406L3378.01 393.191L3337.79 344.193L3324.22 327.839C3315.75 317.631 3308.33 306.602 3302.06 294.916L3291.38 275.02L3286.94 263.133C3281.69 249.075 3279 234.19 3279 219.183V215.216C3279 208.988 3279.66 202.777 3280.97 196.687L3281.49 194.252C3283.92 182.913 3288.88 172.266 3295.98 163.101C3302.14 155.166 3309.77 148.506 3318.47 143.491L3321.36 141.823C3332.2 135.571 3344.18 131.539 3356.59 129.962L3371.82 128.028H3401.88C3405.51 128.028 3409.09 127.18 3412.34 125.551C3421.38 121.014 3426.47 111.163 3424.94 101.16Z" fill="#18363E"/>
<path d="M3424.94 101.16L3423.96 94.7942C3423.28 90.3341 3424.82 85.821 3428.08 82.7059C3430.65 80.2539 3434.07 78.8858 3437.62 78.8855L3450.15 78.8848L3476.53 78.8859L3503.34 78.8848L3518.09 78.8862C3522.27 78.8866 3526.02 81.4587 3527.53 85.3601C3528.12 86.8821 3528.33 88.5238 3528.15 90.1455L3526.6 103.93C3525.64 112.448 3529.8 120.731 3537.2 125.06C3540.52 127.004 3544.3 128.028 3548.14 128.028H3567.78L3585.27 130.257C3596.14 131.643 3606.69 134.849 3616.5 139.741L3621.92 142.447C3633.28 148.112 3642.99 156.588 3650.14 167.07C3654.64 173.664 3658.05 180.939 3660.23 188.617L3661.5 193.089C3663.91 201.554 3665.13 210.312 3665.13 219.112C3665.13 234.076 3661.6 248.829 3654.83 262.17L3648.3 275.02L3628.16 312.489L3615.54 331.567C3609.98 339.973 3603.78 347.943 3597.01 355.409L3562.75 393.191L3548.84 413.618C3546.39 417.21 3545.08 421.455 3545.08 425.801C3545.08 432.501 3548.19 438.824 3553.49 442.922L3573.04 458.041L3586.85 471.011L3590.97 475.216C3595.45 479.793 3597.35 486.3 3596.03 492.567C3594.55 499.671 3589.18 505.328 3582.16 507.185L3579.07 508.004C3577.79 508.341 3576.49 508.575 3575.18 508.702L3535.96 512.506L3483.77 513.982H3433.57L3375.05 508.669C3373.89 508.564 3372.75 508.352 3371.63 508.036C3363.51 505.741 3357.9 498.254 3357.9 489.813C3357.9 485.152 3359.61 480.616 3362.71 477.135L3365.93 473.516C3367.42 471.85 3369.07 470.346 3370.87 469.027L3379.52 462.682C3383.72 459.602 3387.48 455.96 3390.69 451.858L3397.83 442.724C3401.03 438.642 3402.76 433.609 3402.76 428.426C3402.76 422.46 3400.46 416.722 3396.34 412.406L3378.01 393.191L3337.79 344.193L3324.22 327.839C3315.75 317.631 3308.33 306.602 3302.06 294.916L3291.38 275.02L3286.94 263.133C3281.69 249.075 3279 234.19 3279 219.183V215.216C3279 208.988 3279.66 202.777 3280.97 196.687L3281.49 194.252C3283.92 182.913 3288.88 172.266 3295.98 163.101C3302.14 155.166 3309.77 148.506 3318.47 143.491L3321.36 141.823C3332.2 135.571 3344.18 131.539 3356.59 129.962L3371.82 128.028H3401.88C3405.51 128.028 3409.09 127.18 3412.34 125.551C3421.38 121.014 3426.47 111.163 3424.94 101.16Z" fill="#18363E"/>
<path d="M3424.94 101.16L3423.96 94.7942C3423.28 90.3341 3424.82 85.821 3428.08 82.7059C3430.65 80.2539 3434.07 78.8858 3437.62 78.8855L3450.15 78.8848L3476.53 78.8859L3503.34 78.8848L3518.09 78.8862C3522.27 78.8866 3526.02 81.4587 3527.53 85.3601C3528.12 86.8821 3528.33 88.5238 3528.15 90.1455L3526.6 103.93C3525.64 112.448 3529.8 120.731 3537.2 125.06C3540.52 127.004 3544.3 128.028 3548.14 128.028H3567.78L3585.27 130.257C3596.14 131.643 3606.69 134.849 3616.5 139.741L3621.92 142.447C3633.28 148.112 3642.99 156.588 3650.14 167.07C3654.64 173.664 3658.05 180.939 3660.23 188.617L3661.5 193.089C3663.91 201.554 3665.13 210.312 3665.13 219.112C3665.13 234.076 3661.6 248.829 3654.83 262.17L3648.3 275.02L3628.16 312.489L3615.54 331.567C3609.98 339.973 3603.78 347.943 3597.01 355.409L3562.75 393.191L3548.84 413.618C3546.39 417.21 3545.08 421.455 3545.08 425.801C3545.08 432.501 3548.19 438.824 3553.49 442.922L3573.04 458.041L3586.85 471.011L3590.97 475.216C3595.45 479.793 3597.35 486.3 3596.03 492.567C3594.55 499.671 3589.18 505.328 3582.16 507.185L3579.07 508.004C3577.79 508.341 3576.49 508.575 3575.18 508.702L3535.96 512.506L3483.77 513.982H3433.57L3375.05 508.669C3373.89 508.564 3372.75 508.352 3371.63 508.036C3363.51 505.741 3357.9 498.254 3357.9 489.813C3357.9 485.152 3359.61 480.616 3362.71 477.135L3365.93 473.516C3367.42 471.85 3369.07 470.346 3370.87 469.027L3379.52 462.682C3383.72 459.602 3387.48 455.96 3390.69 451.858L3397.83 442.724C3401.03 438.642 3402.76 433.609 3402.76 428.426C3402.76 422.46 3400.46 416.722 3396.34 412.406L3378.01 393.191L3337.79 344.193L3324.22 327.839C3315.75 317.631 3308.33 306.602 3302.06 294.916L3291.38 275.02L3286.94 263.133C3281.69 249.075 3279 234.19 3279 219.183V215.216C3279 208.988 3279.66 202.777 3280.97 196.687L3281.49 194.252C3283.92 182.913 3288.88 172.266 3295.98 163.101C3302.14 155.166 3309.77 148.506 3318.47 143.491L3321.36 141.823C3332.2 135.571 3344.18 131.539 3356.59 129.962L3371.82 128.028H3401.88C3405.51 128.028 3409.09 127.18 3412.34 125.551C3421.38 121.014 3426.47 111.163 3424.94 101.16Z" fill="#18363E"/>
<path d="M3424.94 101.16L3423.96 94.7942C3423.28 90.3341 3424.82 85.821 3428.08 82.7059C3430.65 80.2539 3434.07 78.8858 3437.62 78.8855L3450.15 78.8848L3476.53 78.8859L3503.34 78.8848L3518.09 78.8862C3522.27 78.8866 3526.02 81.4587 3527.53 85.3601C3528.12 86.8821 3528.33 88.5238 3528.15 90.1455L3526.6 103.93C3525.64 112.448 3529.8 120.731 3537.2 125.06C3540.52 127.004 3544.3 128.028 3548.14 128.028H3567.78L3585.27 130.257C3596.14 131.643 3606.69 134.849 3616.5 139.741L3621.92 142.447C3633.28 148.112 3642.99 156.588 3650.14 167.07C3654.64 173.664 3658.05 180.939 3660.23 188.617L3661.5 193.089C3663.91 201.554 3665.13 210.312 3665.13 219.112C3665.13 234.076 3661.6 248.829 3654.83 262.17L3648.3 275.02L3628.16 312.489L3615.54 331.567C3609.98 339.973 3603.78 347.943 3597.01 355.409L3562.75 393.191L3548.84 413.618C3546.39 417.21 3545.08 421.455 3545.08 425.801C3545.08 432.501 3548.19 438.824 3553.49 442.922L3573.04 458.041L3586.85 471.011L3590.97 475.216C3595.45 479.793 3597.35 486.3 3596.03 492.567C3594.55 499.671 3589.18 505.328 3582.16 507.185L3579.07 508.004C3577.79 508.341 3576.49 508.575 3575.18 508.702L3535.96 512.506L3483.77 513.982H3433.57L3375.05 508.669C3373.89 508.564 3372.75 508.352 3371.63 508.036C3363.51 505.741 3357.9 498.254 3357.9 489.813C3357.9 485.152 3359.61 480.616 3362.71 477.135L3365.93 473.516C3367.42 471.85 3369.07 470.346 3370.87 469.027L3379.52 462.682C3383.72 459.602 3387.48 455.96 3390.69 451.858L3397.83 442.724C3401.03 438.642 3402.76 433.609 3402.76 428.426C3402.76 422.46 3400.46 416.722 3396.34 412.406L3378.01 393.191L3337.79 344.193L3324.22 327.839C3315.75 317.631 3308.33 306.602 3302.06 294.916L3291.38 275.02L3286.94 263.133C3281.69 249.075 3279 234.19 3279 219.183V215.216C3279 208.988 3279.66 202.777 3280.97 196.687L3281.49 194.252C3283.92 182.913 3288.88 172.266 3295.98 163.101C3302.14 155.166 3309.77 148.506 3318.47 143.491L3321.36 141.823C3332.2 135.571 3344.18 131.539 3356.59 129.962L3371.82 128.028H3401.88C3405.51 128.028 3409.09 127.18 3412.34 125.551C3421.38 121.014 3426.47 111.163 3424.94 101.16Z" fill="#18363E"/>
<path d="M3527.48 32.7341L3526.75 43.0637C3526.19 50.8476 3519.72 56.8803 3511.91 56.8803H3440.11C3429.64 56.8803 3421.15 48.3904 3421.15 37.9175V29.6289C3421.15 16.0271 3432.17 5.00061 3445.78 5.00061H3447.17L3503.54 5C3515.07 5.00035 3524.93 13.319 3526.86 24.6898L3527.18 26.5598C3527.52 28.5985 3527.62 30.6714 3527.48 32.7341Z" fill="#18363E" stroke="black" stroke-width="9.94523"/>
<mask id="mask4_517_343" style="mask-type:alpha" maskUnits="userSpaceOnUse" x="3274" y="0" width="397" height="519">
<path d="M3475.28 213.837L3470.26 221.066L3465.81 213.837L3464.35 211.703C3462.63 209.179 3460.63 206.852 3458.4 204.763L3458.08 204.467C3455.39 201.953 3452.36 199.834 3449.08 198.172C3445.32 196.271 3441.28 194.994 3437.11 194.39L3436.29 194.272C3434.21 193.97 3432.11 193.819 3430 193.819H3429.36C3426.36 193.819 3423.38 194.096 3420.44 194.647L3419.34 194.852C3417.74 195.151 3416.16 195.568 3414.62 196.098C3411.17 197.289 3407.93 199.041 3405.04 201.284L3401.29 204.199L3400.67 204.837C3397.36 208.23 3394.45 211.997 3392.01 216.061L3390.99 218.458C3389.87 221.049 3389.13 223.782 3388.77 226.579C3388.49 228.827 3388.46 231.101 3388.68 233.357L3388.91 235.683C3389.18 238.414 3389.66 241.119 3390.37 243.771L3392.01 249.981L3395.69 259.619C3399.42 266.775 3403.69 273.636 3408.46 280.142L3410.95 283.529L3421.38 296.689L3436.06 311.703L3458.28 332.648L3470.64 344.325L3487.45 327.828L3498.66 318.005L3511.41 305.03L3524.16 291.314L3531.69 281.676L3540.38 268.886L3544.44 261.287L3548.33 252.133C3549.73 248.854 3550.77 245.436 3551.45 241.937L3551.56 241.332C3552.09 238.578 3552.36 235.779 3552.36 232.974C3552.36 229.129 3551.86 225.301 3550.87 221.587L3550.43 219.954L3549.93 218.723C3548.6 215.483 3546.79 212.458 3544.58 209.746C3543.07 207.906 3541.39 206.221 3539.55 204.717L3537.1 202.716L3532.59 199.59C3530.96 198.464 3529.23 197.511 3527.4 196.746C3525.12 195.787 3522.72 195.131 3520.27 194.795L3513.14 193.819H3509.51C3506.41 193.819 3503.32 194.204 3500.31 194.967C3496.53 195.925 3492.91 197.471 3489.61 199.546C3486.26 201.645 3483.26 204.261 3480.73 207.295L3475.28 213.837Z" fill="black"/>
<path d="M3527.48 32.7351L3526.75 43.0646C3526.19 50.8486 3519.72 56.8813 3511.91 56.8813H3440.11C3429.64 56.8813 3421.15 48.3913 3421.15 37.9185V29.6298C3421.15 16.028 3432.17 5.00159 3445.78 5.00159H3447.17L3503.54 5.00098C3515.07 5.00133 3524.93 13.32 3526.86 24.6907L3527.18 26.5608C3527.52 28.5995 3527.62 30.6723 3527.48 32.7351Z" stroke="black" stroke-width="9.94523"/>
<path d="M3424.94 101.16L3423.96 94.7942C3423.28 90.3341 3424.82 85.821 3428.08 82.7059C3430.65 80.2539 3434.07 78.8858 3437.62 78.8855L3450.15 78.8848L3476.53 78.8859L3503.34 78.8848L3518.09 78.8862C3522.27 78.8866 3526.02 81.4587 3527.53 85.3601C3528.12 86.8821 3528.33 88.5238 3528.15 90.1455L3526.6 103.93C3525.64 112.448 3529.8 120.731 3537.2 125.06C3540.52 127.004 3544.3 128.028 3548.14 128.028H3567.78L3585.27 130.257C3596.14 131.643 3606.69 134.849 3616.5 139.741L3621.92 142.447C3633.28 148.112 3642.99 156.588 3650.14 167.07C3654.64 173.664 3658.05 180.939 3660.23 188.617L3661.5 193.089C3663.91 201.554 3665.13 210.312 3665.13 219.112C3665.13 234.076 3661.6 248.829 3654.83 262.17L3648.3 275.02L3628.16 312.489L3615.54 331.567C3609.98 339.973 3603.78 347.943 3597.01 355.409L3562.75 393.191L3548.84 413.618C3546.39 417.21 3545.08 421.455 3545.08 425.801C3545.08 432.501 3548.19 438.824 3553.49 442.922L3573.04 458.041L3586.85 471.011L3590.97 475.216C3595.45 479.793 3597.35 486.3 3596.03 492.567C3594.55 499.671 3589.18 505.328 3582.16 507.185L3579.07 508.004C3577.79 508.341 3576.49 508.575 3575.18 508.702L3535.96 512.506L3483.77 513.982H3433.57L3375.05 508.669C3373.89 508.564 3372.75 508.352 3371.63 508.036C3363.51 505.741 3357.9 498.254 3357.9 489.813C3357.9 485.152 3359.61 480.616 3362.71 477.135L3365.93 473.516C3367.42 471.85 3369.07 470.346 3370.87 469.027L3379.52 462.682C3383.72 459.602 3387.48 455.96 3390.69 451.858L3397.83 442.724C3401.03 438.642 3402.76 433.609 3402.76 428.426C3402.76 422.46 3400.46 416.722 3396.34 412.406L3378.01 393.191L3337.79 344.193L3324.22 327.839C3315.75 317.631 3308.33 306.602 3302.06 294.916L3291.38 275.02L3286.94 263.133C3281.69 249.075 3279 234.19 3279 219.183V215.216C3279 208.988 3279.66 202.777 3280.97 196.687L3281.49 194.252C3283.92 182.913 3288.88 172.266 3295.98 163.101C3302.14 155.166 3309.77 148.506 3318.47 143.491L3321.36 141.823C3332.2 135.571 3344.18 131.539 3356.59 129.962L3371.82 128.028H3401.88C3405.51 128.028 3409.09 127.18 3412.34 125.551C3421.38 121.014 3426.47 111.163 3424.94 101.16Z" stroke="black" stroke-width="9.94523"/>
</mask>
<g mask="url(#mask4_517_343)">
<rect x="2275.02" y="-164.779" width="1755.41" height="718.01" fill="#18363E"/>
</g>
</svg>
