<svg width="624" height="106" viewBox="0 0 624 106" fill="none" xmlns="http://www.w3.org/2000/svg">
<path d="M3.19308 2.13348L3.19308 103.733H0L0 105.867H10.7766V103.733H7.58355L7.58355 11.6002L43.3726 105.867H47.7631L79.2947 12.9335L79.2947 103.733H76.1016V105.867H109.097V103.733H105.904L105.904 2.13348H109.097V0.000152588H79.2947L56.0119 68.5335L29.802 0.000152588H0L0 2.13348H3.19308Z" fill="white"/>
<path d="M118.76 105.867H130.601L130.601 103.733H127.009L136.189 70.2668H170.115L179.163 103.733H175.171L175.171 105.867H209.63L209.63 103.733H205.771L177.566 0.000152588L178.231 2.13348H181.424V0.000152588H146.833V2.13348H150.292L122.618 103.733H118.76V105.867ZM153.086 8.13348L168.918 65.8668H137.386L153.086 8.13348Z" fill="white"/>
<path d="M290.827 3.60015C285.106 1.33348 269.806 0.133489 262.621 0.133489C232.819 0.133489 211.399 20.4001 211.399 51.7335V54.4002C211.399 85.7335 232.686 106 262.488 106C274.462 106 292.556 105.333 299.475 98.5335V66.2668C299.475 63.0668 303.2 59.6001 308.389 59.0668V58.5335H263.952V59.0668C268.874 59.6001 272.467 62.8002 272.866 65.8668V98.5335C272.866 100.933 266.48 103.867 262.488 103.867C248.652 103.867 238.54 85.2002 238.008 61.3335V44.8002C238.54 20.9335 248.785 2.26682 262.621 2.26682C274.462 2.26682 290.295 15.7335 292.423 34.5335H294.552V1.86682L290.827 3.60015Z" fill="white"/>
<path d="M310.254 2.13348H313.447V103.733H310.254V105.867H343.249V103.733H340.056V2.13348H343.249V0.000152588H310.254V2.13348Z" fill="white"/>
<path d="M354.628 51.7335V54.4002C354.628 85.7335 375.916 106 405.718 106C412.902 106 428.335 104.8 434.056 102.533L437.781 104.267V71.6002H435.653C433.524 90.4002 417.559 103.867 405.718 103.867C391.881 103.867 381.769 85.2002 381.237 61.3335V44.8002C381.769 20.9335 391.881 2.26682 405.718 2.26682C417.559 2.26682 433.524 15.7335 435.653 34.5335H437.781V1.86682L434.056 3.60015C428.335 1.33348 412.902 0.133489 405.718 0.133489C375.916 0.133489 354.628 20.4001 354.628 51.7335Z" fill="white"/>
<path d="M451.042 0.000152588V2.13348H454.236V75.2002C454.236 98.2668 474.458 106 494.149 106C516.101 106 528.874 95.8668 528.874 72.8002V2.13348H532.067V0.000152588H521.29V2.13348H524.483V73.4668C524.483 92.6668 512.509 101.067 501.067 101.067C491.222 101.067 480.844 98.0002 480.844 82.6668V2.13348H484.038V0.000152588H451.042Z" fill="white"/>
<path d="M589.213 0.133489C558.347 0.133489 542.115 14.4002 542.115 30.8002C542.115 45.6002 559.81 54.0002 569.256 59.7335C584.157 68.8002 598.26 74.1335 598.393 86.1335C598.526 96.1335 592.672 103.867 580.299 103.867C562.87 104 549.965 90.2668 548.102 71.4668H545.974V104.133L549.699 102.4C556.218 104.667 567.793 106 574.578 106C613.161 106 623.672 89.7335 623.672 77.2002C623.672 62.4002 605.977 54.0002 596.531 48.2668C581.63 39.2002 567.394 33.0668 567.394 21.0668C567.394 9.46682 576.707 2.26682 589.213 2.26682C602.784 2.26682 615.29 17.7335 616.753 34.5335H618.882V1.86682L615.157 3.60015C609.436 1.33348 598.393 0.133489 589.213 0.133489Z" fill="white"/>
</svg>
